<svg xmlns="http://www.w3.org/2000/svg" width="471" height="55" viewBox="0 0 471 55">
  <path fill="#FFF" d="M41.64 5.29C41.58 4.44 41.53 3.59 41.48 2.75 41.43 1.91 41.37 1.2 41.31.66 39.89.766666667 37.39.86 33.81.94 30.23 1.02 25.96 1.06333333 21 1.07 19.64 1.07 17.94 1.07 15.92 1.02L9.84.94C7.84.94 5.94.87 4.22.82 2.97320676.80057531 1.72823376.71713208.49.57L0 9.1C0 9.21.11 9.28.33 9.3.55 9.32.66 9.3.66 9.18.801798828 8.20772705 1.14219407 7.27504408 1.66 6.44 2.0833276 5.62950242 2.66878289 4.91470236 3.38 4.34 3.8429385 4.06958286 4.34096536 3.86431503 4.86 3.73 5.76626205 3.4880824 6.6885919 3.31096834 7.62 3.2 8.82 3.03 10.31 2.9 12.09 2.79 13.87 2.68 16.04 2.62 18.61 2.62L18.61 41.8C18.61 44.3733333 18.54 46.3733333 18.4 47.8 18.3609786 48.9287791 18.0376579 50.0294453 17.46 51 16.947138 51.6967888 16.1832194 52.1666167 15.33 52.31 14.0847929 52.5306438 12.8243442 52.6543483 11.56 52.68 11.4466667 52.68 11.3766667 52.83 11.35 53.13 11.35 53.43 11.42 53.58 11.64 53.58 12.24 53.58 12.95 53.58 13.77 53.58L16.27 53.49 18.81 53.41C19.66 53.41 20.38 53.41 20.98 53.41 21.58 53.41 22.38 53.41 23.2 53.41L25.74 53.49 28.28 53.58C29.1 53.58 29.81 53.58 30.41 53.58 30.57 53.58 30.66 53.43 30.66 53.13 30.66 52.83 30.6 52.68 30.49 52.68 29.199003 52.6568768 27.9117718 52.5331689 26.64 52.31 25.7950478 52.173398 25.0412427 51.7009173 24.55 51 23.9925709 50.02309 23.6835244 48.9242582 23.65 47.8 23.51 46.3533333 23.44 44.3533333 23.44 41.8L23.44 2.62C26.0133333 2.62 28.2 2.67666667 30 2.79 31.8 2.9 33.31 3.05 34.51 3.24 35.466757 3.37511505 36.4125379 3.57897596 37.34 3.85 37.8705809 4.00149053 38.378443 4.22346997 38.85 4.51 39.5154772 5.03021237 40.0270455 5.7215208 40.33 6.51 40.7178332 7.40589606 41.0192019 8.33679044 41.23 9.29 41.28 9.4 41.42 9.44 41.64 9.42 41.86 9.4 41.97 9.32 41.97 9.21 41.8859719 8.70676865 41.8292223 8.19936094 41.8 7.69 41.75 6.93 41.69 6.14 41.64 5.29zM81.48 20.76C81.5061617 20.0096264 81.7009817 19.274779 82.05 18.61 82.3205537 18.1754196 82.7582579 17.8715589 83.26 17.77 84.0008519 17.6170685 84.7537943 17.5300618 85.51 17.51 85.6966667 17.51 85.8066667 17.35 85.84 17.03 85.8677838 16.8821525 85.8314292 16.7294635 85.74 16.61 85.6770554 16.5452281 85.5903138 16.5093948 85.5 16.51L85.5 16.51 82.5 16.63C81.37 16.63 80.35 16.68 79.5 16.68 78.65 16.68 77.59 16.68 76.44 16.63L73.44 16.51C73.3329661 16.503611 73.22919 16.5480865 73.16 16.63 73.0668406 16.7408161 73.0299493 16.8883814 73.06 17.03 73.06 17.35 73.2 17.51 73.38 17.51L73.38 17.51C74.1395496 17.5295239 74.8958598 17.6165331 75.64 17.77 76.142859 17.8811923 76.5834434 18.1820792 76.87 18.61 77.2415965 19.2673216 77.4475295 20.0052479 77.47 20.76 77.57 21.76 77.62 23.18 77.62 24.96L77.62 34.07 57.64 34.07 57.64 25C57.64 23.21 57.64 21.8 57.78 20.8 57.8095017 20.0501248 58.0041299 19.3160008 58.35 18.65 58.6205537 18.2154196 59.0582579 17.9115589 59.56 17.81 60.3008519 17.6570685 61.0537943 17.5700618 61.81 17.55 61.95 17.55 62.11 17.47 62.11 17.05 62.11 16.63 61.86 16.55 61.75 16.55L61.75 16.55 58.75 16.67C57.64 16.67 56.63 16.72 55.75 16.72 54.87 16.72 53.85 16.72 52.75 16.67L49.75 16.55C49.6429661 16.543611 49.53919 16.5880865 49.47 16.67 49.3768406 16.7808161 49.3399493 16.9283814 49.37 17.07 49.37 17.39 49.51 17.55 49.69 17.55L49.69 17.55C50.4495496 17.5695239 51.2058598 17.6565331 51.95 17.81 52.4490157 17.9118554 52.8834929 18.2159894 53.15 18.65 53.4999654 19.3149503 53.6980576 20.0492574 53.73 20.8 53.82 21.8 53.87 23.22 53.87 25L53.87 45.27C53.87 47.05 53.82 48.47 53.73 49.47 53.6978781 50.2238939 53.499839 50.961419 53.15 51.63 52.8823604 52.0610603 52.447767 52.361654 51.95 52.46 51.2091481 52.6129315 50.4562057 52.6999382 49.7 52.72 49.5133333 52.72 49.4033333 52.88 49.37 53.2 49.3383659 53.3416428 49.3754321 53.4899077 49.47 53.6 49.5413185 53.6848916 49.6495497 53.7296769 49.76 53.72L49.76 53.72C50.6 53.72 51.6 53.64 52.76 53.61 53.92 53.58 54.92 53.55 55.76 53.55 56.6 53.55 57.65 53.55 58.76 53.61 59.87 53.67 60.88 53.68 61.76 53.72 61.86 53.72 62.11 53.72 62.11 53.22 62.11 52.72 61.95 52.72 61.82 52.72L61.82 52.72C61.0604504 52.7004761 60.3041402 52.6134669 59.56 52.46 59.0604332 52.3597351 58.6234121 52.0599603 58.35 51.63 58.0042485 50.9603775 57.8096714 50.2230326 57.78 49.47 57.69 48.47 57.64 47.06 57.64 45.27L57.64 35.36 77.58 35.36 77.58 45.27C77.58 47.05 77.58 48.47 77.43 49.47 77.4075295 50.2247521 77.2015965 50.9626784 76.83 51.62 76.5434434 52.0479208 76.102859 52.3488077 75.6 52.46 74.8591481 52.6129315 74.1062057 52.6999382 73.35 52.72 73.1633333 52.72 73.0533333 52.88 73.02 53.2 72.9883659 53.3416428 73.0254321 53.4899077 73.12 53.6 73.1913185 53.6848916 73.2995497 53.7296769 73.41 53.72L73.41 53.72C74.25 53.72 75.25 53.64 76.41 53.61 77.57 53.58 78.59 53.55 79.47 53.55 80.35 53.55 81.38 53.55 82.47 53.61 83.56 53.67 84.61 53.68 85.47 53.72L85.47 53.72C85.5578617 53.7232557 85.6424562 53.6864755 85.7 53.62 85.7914292 53.5005365 85.8277838 53.3478475 85.8 53.2 85.8 52.88 85.66 52.72 85.48 52.72 84.7204057 52.7011147 83.9640387 52.614099 83.22 52.46 82.7195011 52.361949 82.2816823 52.061627 82.01 51.63 81.6595293 50.9622024 81.4646662 50.2237738 81.44 49.47 81.34 48.47 81.29 47.05 81.29 45.27L81.29 25C81.33 23.18 81.38 21.77 81.48 20.76zM121.51 47.67C121.413366 47.631551 121.305197 47.6343889 121.210712 47.6778519 121.116227 47.7213149 121.043685 47.8016043 121.01 47.9 120.747835 48.6606378 120.433763 49.4023814 120.07 50.12 119.842642 50.5866727 119.498081 50.986364 119.07 51.28 118.529891 51.5834529 117.928301 51.7611953 117.31 51.8 116.55 51.88 115.53 51.91 114.17 51.91L113.26 51.91C111.81 51.91 110.65 51.91 109.82 51.91 109.149561 51.8888869 108.481344 51.8220651 107.82 51.71 107.491455 51.6576934 107.171746 51.560098 106.87 51.42 106.69746 51.310033 106.536623 51.1827035 106.39 51.04 106.210333 50.8603199 106.058644 50.6546973 105.94 50.43 105.792533 50.137369 105.691331 49.8236424 105.64 49.5 105.556553 48.9805999 105.509771 48.45597 105.5 47.93 105.5 47.29 105.5 46.43 105.5 45.32L105.5 35.42 107.96 35.42C110.143711 35.3764185 112.328005 35.4699357 114.5 35.7 115.323066 35.7258954 116.125556 35.9635427 116.83 36.39 117.112382 36.6699772 117.324792 37.0125745 117.45 37.39 117.559549 37.7334709 117.623431 38.0898628 117.64 38.45 117.64 38.52 117.64 38.75 118.05 38.75 118.46 38.75 118.47 38.57 118.47 38.38 118.43 37.92 118.4 37.32 118.38 36.58 118.38 35.84 118.38 35.2 118.38 34.66L118.38 32.66C118.38 32.3 118.38 32 118.38 31.72 118.38 31.44 118.38 31.22 118.38 31.15 118.428082 31.0557796 118.428082 30.9442204 118.38 30.85 118.288996 30.7437037 118.14216 30.7040185 118.01 30.75 117.74 30.81 117.6 30.93 117.6 31.09 117.563692 31.4762184 117.490013 31.8580054 117.38 32.23 117.239181 32.6550423 117.007089 33.0441363 116.7 33.37 116.484338 33.4963415 116.246905 33.581139 116 33.62 115.484611 33.7187058 114.96362 33.7854996 114.44 33.82 113.76 33.88 112.87 33.91 111.82 33.93L107.97 34.02 105.52 34.02 105.52 18.28C105.706464 18.2676886 105.893536 18.2676886 106.08 18.28L112.08 18.28C113.35 18.28 114.39 18.28 115.17 18.34 115.765408 18.3481395 116.355878 18.449363 116.92 18.64 117.290963 18.7752303 117.593083 19.0521737 117.76 19.41 117.989311 19.9251702 118.157134 20.4655609 118.26 21.02 118.26 21.11 118.26 21.32 118.68 21.32 119.1 21.32 119.09 21.14 119.09 20.96L119.09 20.19C119.09 19.78 119.09 19.36 119.09 18.92 119.09 18.48 119.09 18.08 119.09 17.72L119.09 17.12C119.09 16.88 118.79 16.76 118.68 16.72 118.077202 16.5809562 117.45636 16.5370923 116.84 16.59L115.59 16.59C114.59 16.59 113.46 16.59 112.32 16.59L110.87 16.59 103.75 16.59C102.87 16.59 101.85 16.59 100.75 16.54L97.75 16.42C97.6400676 16.4135399 97.533225 16.4577506 97.46 16.54 97.37606 16.6553221 97.3402045 16.798744 97.36 16.94 97.36 17.26 97.5 17.42 97.68 17.42L97.68 17.42C98.4395496 17.4395239 99.1958598 17.5265331 99.94 17.68 100.441742 17.7815589 100.879446 18.0854196 101.15 18.52 101.499018 19.184779 101.693838 19.9196264 101.72 20.67 101.82 21.67 101.87 23.09 101.87 24.87L101.87 45.27C101.87 47.05 101.87 48.47 101.72 49.47 101.695334 50.2237738 101.500471 50.9622024 101.15 51.63 100.878318 52.061627 100.440499 52.361949 99.94 52.46 99.1992491 52.613559 98.4462505 52.7005722 97.69 52.72 97.4966667 52.72 97.3866667 52.88 97.36 53.2 97.3379782 53.3413653 97.3740442 53.4856291 97.46 53.6 97.533225 53.6822494 97.6400676 53.7264601 97.75 53.72L99.93 53.72 103.26 53.66 106.62 53.61 108.88 53.61 109.8 53.61C110.75 53.61 111.71 53.61 112.66 53.61L115.33 53.66 117.51 53.72 118.92 53.72C119.401587 53.726546 119.882975 53.6964593 120.36 53.63 120.765222 53.5846049 121.093614 53.2805382 121.17 52.88L121.97 48.08C121.999527 48.0131137 121.999527 47.9368863 121.97 47.87 121.869699 47.7182443 121.68939 47.6398491 121.51 47.67L121.51 47.67zM191.82 43.57C191.63 43.48 191.48 43.57 191.37 43.77 190.672005 45.3644779 189.778486 46.8659933 188.71 48.24 187.656064 49.4915819 186.355739 50.5127795 184.89 51.24 183.858575 51.7401734 182.775443 52.1258086 181.66 52.39 180.174043 52.774285 178.644832 52.9658566 177.11 52.96 174.072078 52.9764115 171.066598 52.3350606 168.3 51.08 165.539531 49.832254 163.057271 48.0436673 161 45.82 158.867581 43.4894175 157.19791 40.7745057 156.08 37.82 154.855817 34.6297059 154.245117 31.2369259 154.28 27.82 154.274567 24.3238359 154.786787 20.8461309 155.8 17.5 156.681504 14.4457258 158.126331 11.5832047 160.06 9.06 163.946299 4.01931685 170.007402 1.13927098 176.37 1.31 178.064393 1.30386833 179.75002 1.55334106 181.37 2.05 182.903817 2.51749476 184.354792 3.22273614 185.67 4.14 186.95033 5.03170251 188.049786 6.15830488 188.91 7.46 189.786666 8.77577029 190.398096 10.2499965 190.71 11.8 190.757251 11.961405 190.912621 12.0663845 191.08 12.05 191.27 12.05 191.37 12 191.37 11.89L191.12.89C191.12.73 191 .65 190.75.65 190.5.65 190.36.65 190.3.81 190.16866 1.12224185 189.989886 1.41232731 189.77 1.67 189.545476 1.96023111 189.196871 2.12711676 188.83 2.12 188.406352 2.06926741 187.992149 1.95813989 187.6 1.79 187 1.58 186.19 1.33 185.18 1.06 183.939364.737719358 182.680409.490603511 181.41.32 179.656583.0870231885 177.888715-.0199177296 176.12-4.9101348e-15 172.198854-.0539042645 168.308438.698310921 164.69 2.21 161.387372 3.61124157 158.393568 5.65015506 155.88 8.21 153.415588 10.7251061 151.477762 13.7066381 150.18 16.98 148.842908 20.3149181 148.163758 23.8770583 148.18 27.47 148.148323 31.0662074 148.785831 34.6369351 150.06 38 151.271879 41.2202826 153.141635 44.1526336 155.55 46.61 158.053304 49.1375032 161.052975 51.1191247 164.36 52.43 168.133264 53.9061089 172.158882 54.629701 176.21 54.56 178.153605 54.5617727 180.092761 54.3742205 182 54 183.434911 53.7324369 184.848597 53.3614697 186.23 52.89 187.170214 52.5747278 188.075083 52.1625096 188.93 51.66 189.410726 51.3731879 189.874804 51.059351 190.32 50.72 190.485262 50.6100465 190.614062 50.4533975 190.69 50.27 190.81197 49.9445312 190.908919 49.6102267 190.98 49.27 191.09 48.81 191.23 48.15 191.39 47.27L192.05 43.78C192.08 43.74 192 43.65 191.82 43.57zM239.33 52.83C238.595084 52.8521376 237.860826 52.7679337 237.15 52.58 236.57855 52.4096321 236.028344 52.1747879 235.51 51.88 235.118905 51.6511613 234.778628 51.3449122 234.51 50.98 234.13 50.51 233.72 49.98 233.29 49.27 232.86 48.56 232.39 47.88 231.88 47.07 231.37 46.26 230.88 45.48 230.45 44.71 230.02 43.94 229.45 43.08 228.87 42.22 228.29 41.36 227.71 40.51 227.08 39.71 226.458574 38.9083072 225.790766 38.1436668 225.08 37.42 224.466696 36.8023718 223.797131 36.2432845 223.08 35.75 224.737769 34.6306043 226.166665 33.2051025 227.29 31.55 228.474598 29.6856127 229.070456 27.5077699 229 25.3 229.073033 22.7802649 227.962992 20.3714746 226 18.79 223.701943 17.0628289 220.871135 16.195894 218 16.34 216.977195 16.3528767 215.955779 16.4196359 214.94 16.54 213.977514 16.6575245 213.009507 16.7242836 212.04 16.74 211.21 16.74 210.22 16.74 209.04 16.65L206.04 16.51C205.94 16.51 205.62 16.51 205.62 17.01 205.62 17.51 205.72 17.51 205.91 17.51L205.91 17.51C206.669458 17.5308164 207.425655 17.6178125 208.17 17.77 208.668056 17.8740799 209.101731 18.1776524 209.37 18.61 209.719018 19.274779 209.913838 20.0096264 209.94 20.76 210.04 21.76 210.09 23.18 210.09 24.96L210.09 45.27C210.09 47.05 210.09 48.47 209.94 49.47 209.915334 50.2237738 209.720471 50.9622024 209.37 51.63 209.100601 52.0593822 208.666817 52.359416 208.17 52.46 207.42586 52.6134669 206.66955 52.7004761 205.91 52.72 205.71 52.72 205.61 52.89 205.61 53.22 205.61 53.55 205.93 53.72 206.04 53.72L206.04 53.72C206.88 53.72 207.85 53.64 208.96 53.61 210.07 53.58 211.06 53.55 211.96 53.55L213.5 53.55 217 53.66 218.5 53.66C218.6 53.66 218.91 53.66 218.91 53.16 218.91 52.66 218.75 52.66 218.62 52.66L218.62 52.66C217.724591 52.6429359 216.831879 52.5560052 215.95 52.4 215.401869 52.3087436 214.916412 51.9935591 214.61 51.53 214.24277 50.8708742 214.037141 50.1340343 214.01 49.38 213.91 48.38 213.86 47 213.86 45.21L213.86 37C214.21 37 214.62 36.94 215.09 36.93 216.314162 36.8568737 217.542415 36.8936879 218.76 37.04 219.297568 37.1289518 219.809381 37.3336768 220.26 37.64 220.779981 38.0082755 221.250499 38.4418237 221.66 38.93 222.14 39.49 222.74 40.23 223.46 41.13 224.18 42.03 224.77 43 225.57 44.32 226.37 45.64 227.14 46.99 227.89 48.32 228.64 49.65 229.29 50.79 229.89 51.79 230.65 53.15 230.89 53.43 231.07 53.52 231.260151 53.6220174 231.474462 53.6704104 231.69 53.66L232.84 53.66C233.41 53.66 234.05 53.66 234.75 53.72L236.75 53.81 238.39 53.81 239.28 53.81C239.42 53.81 239.64 53.74 239.64 53.28 239.63 53.23 239.63 52.83 239.33 52.83zM221.9 34.83C221.368761 35.1491568 220.787148 35.3757153 220.18 35.5 219.45689 35.653382 218.719164 35.7271546 217.98 35.72 216.613317 35.7161843 215.251408 35.5585248 213.92 35.25L213.92 18.13 214.84 18.06C215.18 18.06 215.513333 18.06 215.84 18.06 218.30213 17.9265295 220.72166 18.7425839 222.6 20.34 224.24 21.84 225.07 24.2 225.07 27.34 225.119514 28.9835756 224.776715 30.615296 224.07 32.1 223.571734 33.1542276 222.827524 34.073344 221.9 34.78L221.9 34.83zM273 47.67C272.90205 47.631958 272.79272 47.6361732 272.697989 47.6816438 272.603259 47.7271144 272.531585 47.8097811 272.5 47.91 272.236215 48.6667714 271.922183 49.4050809 271.56 50.12 271.318769 50.5927371 270.956446 50.9930179 270.51 51.28 269.971562 51.5873918 269.369039 51.7654101 268.75 51.8 268.01 51.88 266.95 51.91 265.62 51.91L264.7 51.91C263.25 51.91 262.09 51.91 261.26 51.91 260.606284 51.8866464 259.954846 51.8198322 259.31 51.71 258.983449 51.6629959 258.666274 51.5651438 258.37 51.42 258.193291 51.3160028 258.031769 51.1881314 257.89 51.04 257.707131 50.8607209 257.552085 50.6551162 257.43 50.43 257.288541 50.1349384 257.187626 49.8221045 257.13 49.5 257.044734 48.9809874 257.001261 48.4559685 257 47.93 257 47.29 257 46.43 257 45.32L257 35.42 259.45 35.42C261.633711 35.3764185 263.818005 35.4699357 265.99 35.7 266.813798 35.7213051 267.617441 35.9592936 268.32 36.39 268.602382 36.6699772 268.814792 37.0125745 268.94 37.39 269.054412 37.7322474 269.118415 38.0893213 269.13 38.45 269.13 38.52 269.13 38.75 269.55 38.75 269.655565 38.764882 269.762296 38.7322103 269.841441 38.6607864 269.920587 38.5893625 269.964005 38.4865332 269.96 38.38 269.96 37.93 269.9 37.38 269.88 36.58 269.86 35.78 269.88 35.2 269.88 34.66L269.88 32.66C269.88 32.3 269.88 31.99 269.88 31.72 269.892154 31.5301944 269.892154 31.3398056 269.88 31.15 269.928082 31.0557796 269.928082 30.9442204 269.88 30.85 269.78296 30.7466042 269.635364 30.707763 269.5 30.75 269.23 30.81 269.09 30.93 269.1 31.09 269.055087 31.4757219 268.978155 31.8570375 268.87 32.23 268.733204 32.65687 268.500609 33.0468077 268.19 33.37 267.974338 33.4963415 267.736905 33.581139 267.49 33.62 266.977998 33.7188547 266.460325 33.7856512 265.94 33.82 265.25 33.88 264.36 33.91 263.31 33.93L259.47 34.02 257.02 34.02 257.02 18.28C257.206437 18.2669173 257.393563 18.2669173 257.58 18.28L263.58 18.28C264.85 18.28 265.89 18.28 266.67 18.34 267.265483 18.3473124 267.856082 18.4485578 268.42 18.64 268.794146 18.7739375 269.099851 19.0508711 269.27 19.41 269.491739 19.9279893 269.659297 20.4675276 269.77 21.02 269.77 21.11 269.77 21.32 270.18 21.32 270.59 21.32 270.6 21.14 270.6 20.96L270.6 20.19C270.6 19.78 270.6 19.36 270.6 18.92 270.6 18.48 270.6 18.08 270.6 17.72L270.6 17.12C270.6 16.88 270.31 16.76 270.2 16.72 269.593798 16.5810487 268.969677 16.5371916 268.35 16.59L267.11 16.59C266.61 16.59 266.11 16.59 265.51 16.59L263.84 16.59 262.38 16.59 255.27 16.59C254.39 16.59 253.36 16.59 252.27 16.54L249.27 16.42C249.162966 16.413611 249.05919 16.4580865 248.99 16.54 248.895432 16.6500923 248.858366 16.7983572 248.89 16.94 248.89 17.26 249.02 17.42 249.21 17.42 249.96955 17.4395239 250.72586 17.5265331 251.47 17.68 251.969016 17.7818554 252.403493 18.0859894 252.67 18.52 253.019965 19.1849503 253.218058 19.9192574 253.25 20.67 253.34 21.67 253.39 23.09 253.39 24.87L253.39 45.27C253.39 47.06 253.39 48.47 253.25 49.47 253.216261 50.2236446 253.018315 50.9608248 252.67 51.63 252.40236 52.0610603 251.967767 52.361654 251.47 52.46 250.72586 52.6134669 249.96955 52.7004761 249.21 52.72 249.02 52.72 248.91 52.88 248.89 53.2 248.858366 53.3416428 248.895432 53.4899077 248.99 53.6 249.05919 53.6819135 249.162966 53.726389 249.27 53.72L251.45 53.72 254.78 53.66 258.14 53.61 260.4 53.61 261.32 53.61C262.27 53.61 263.23 53.61 264.18 53.61L266.85 53.66 269.03 53.72 270.44 53.72C270.921587 53.726546 271.402975 53.6964593 271.88 53.63 272.288121 53.5910066 272.619774 53.2839201 272.69 52.88L273.49 48.08C273.519527 48.0131137 273.519527 47.9368863 273.49 47.87 273.385212 47.7066403 273.18917 47.6266229 273 47.67L273 47.67zM302.06 36.09C300.842493 35.0556959 299.537607 34.1288925 298.16 33.32 296.78 32.5 295.42 31.65 294.16 30.77 293.25 30.16 292.45 29.59 291.8 29.06 291.172476 28.571386 290.611109 28.0032959 290.13 27.37 289.696249 26.7948248 289.358541 26.1531801 289.13 25.47 288.898462 24.7291766 288.787052 23.956055 288.8 23.18 288.749301 21.5210815 289.429275 19.923507 290.66 18.81 292.074645 17.6233508 293.885949 17.01601 295.73 17.11 296.73703 17.1043807 297.73555 17.294575 298.67 17.67 299.561824 18.0381887 300.386359 18.5518337 301.11 19.19 301.829148 19.8363846 302.437243 20.5965027 302.91 21.44 303.399014 22.3243066 303.759314 23.2738811 303.98 24.26 304.018503 24.4731555 304.203399 24.6286362 304.42 24.63 304.529167 24.6339643 304.634506 24.589486 304.707796 24.5084816 304.781085 24.4274773 304.814834 24.3182268 304.8 24.21L304.63 16.64C304.63 16.47 304.52 16.28 304.19 16.28 303.984642 16.2494083 303.782895 16.3543171 303.69 16.54 303.57 17.08 303.28 17.14 303.07 17.14 302.756351 17.1171224 302.447051 17.0532453 302.15 16.95L300.51 16.49C299.88 16.32 299.17 16.16 298.4 16.03 297.611124 15.8893643 296.811313 15.819088 296.01 15.82 294.425973 15.7905624 292.854025 16.1008602 291.4 16.73 290.131188 17.2608945 288.976748 18.0316528 288 19 287.135942 19.8917416 286.456299 20.945188 286 22.1 285.566363 23.1400034 285.335553 24.2533208 285.32 25.38 285.291094 26.8730426 285.712757 28.3401499 286.53 29.59 287.364403 30.806472 288.375519 31.8917366 289.53 32.81 290.791084 33.809688 292.128504 34.7091031 293.53 35.5 294.910679 36.2915532 296.24609 37.1595705 297.53 38.1 298.95522 39.1126922 300.236848 40.313588 301.34 41.67 302.341438 43.008285 302.853279 44.6497063 302.79 46.32 302.798055 47.2228074 302.610417 48.1166428 302.24 48.94 301.876875 49.7455469 301.364519 50.4750603 300.73 51.09 300.073799 51.7175276 299.303172 52.2131732 298.46 52.55 297.56273 52.9060272 296.605305 53.0859689 295.64 53.08 294.124672 53.124745 292.616452 52.8557848 291.21 52.29 290.091043 51.8123597 289.085723 51.1035242 288.26 50.21 287.47126 49.3453755 286.832471 48.3550845 286.37 47.28 285.904775 46.2143582 285.533368 45.1101754 285.26 43.98 285.15 43.59 284.93 43.44 284.69 43.54 284.47268 43.6321961 284.363546 43.8766549 284.44 44.1 284.63 46.22 284.77 47.95 284.86 49.4 285 51.52 285.17 51.81 285.29 51.9 285.617036 52.1725466 285.98055 52.3980602 286.37 52.57 287.014872 52.8854794 287.68361 53.149631 288.37 53.36 289.309649 53.6355781 290.264613 53.8559545 291.23 54.02 292.446261 54.2205358 293.67734 54.3175501 294.91 54.31 296.524857 54.3364317 298.126899 54.0194318 299.61 53.38 300.926217 52.8054869 302.128617 51.9993705 303.16 51 304.111587 50.0518922 304.875035 48.932168 305.41 47.7 305.912686 46.561797 306.181345 45.3341265 306.2 44.09 306.223186 42.4953446 305.8081 40.9249323 305 39.55 304.208589 38.2488472 303.216325 37.0810816 302.06 36.09zM348.19 46.3C348.019515 46.302233 347.868205 46.4097426 347.81 46.57 347.340547 47.6727908 346.732302 48.7111754 346 49.66 345.277075 50.5122762 344.389287 51.2095809 343.39 51.71 342.678021 52.0522046 341.930052 52.313826 341.16 52.49 340.138957 52.7612173 339.086435 52.8957249 338.03 52.89 335.927023 52.8985991 333.846745 52.4552612 331.93 51.59 330.041475 50.7194907 328.342574 49.4860889 326.93 47.96 325.457399 46.3537735 324.300561 44.4845125 323.52 42.45 322.671726 40.2390262 322.247661 37.8880107 322.27 35.52 322.248788 33.0806853 322.585712 30.6514644 323.27 28.31 323.880721 26.1934129 324.88119 24.2094313 326.22 22.46 328.915349 18.9899332 333.097373 17.0046778 337.49 17.11 338.655945 17.1038596 339.815988 17.2758428 340.93 17.62 342.000559 17.9365149 343.013423 18.4226895 343.93 19.06 345.719987 20.3045463 346.959689 22.1927632 347.39 24.33 347.449646 24.5197166 347.631606 24.6437802 347.83 24.63 348.2 24.63 348.22 24.38 348.22 24.32L348 16.64C348 16.56 348 16.28 347.56 16.28 347.365299 16.251308 347.172324 16.3418881 347.07 16.51 346.982035 16.7109353 346.867696 16.8992581 346.73 17.07 346.602214 17.2249549 346.410822 17.3132897 346.21 17.31 345.934271 17.2807316 345.664555 17.209931 345.41 17.1 344.99 16.94 344.41 16.77 343.7 16.57 342.823325 16.348981 341.935369 16.1753957 341.04 16.05 339.8068 15.8875146 338.563824 15.8106639 337.32 15.82 334.547509 15.783801 331.7972 16.3182052 329.24 17.39 326.902171 18.3761178 324.781728 19.8135335 323 21.62 321.270435 23.402332 319.910952 25.5095305 319 27.82 318.056332 30.1762226 317.574257 32.6918391 317.58 35.23 317.564602 37.7616116 318.018955 40.274115 318.92 42.64 319.780077 44.9155696 321.101019 46.9889045 322.8 48.73 324.565628 50.5098876 326.675132 51.9116872 329 52.85 331.664225 53.8831415 334.502786 54.3924527 337.36 54.35 338.731358 54.3635596 340.100885 54.2463629 341.45 54 342.467779 53.8139399 343.470487 53.5532359 344.45 53.22 345.122992 52.9966317 345.770038 52.7016054 346.38 52.34 346.726562 52.1407304 347.060527 51.9203134 347.38 51.68 347.522768 51.5800586 347.633836 51.441224 347.7 51.28 347.788292 51.0457175 347.858497 50.8050126 347.91 50.56 347.99 50.24 348.09 49.78 348.2 49.18 348.31 48.58 348.47 47.78 348.66 46.76 348.680051 46.694841 348.680051 46.625159 348.66 46.56 348.608257 46.4548457 348.519094 46.3728163 348.41 46.33L348.19 46.3zM384 47.67C383.902275 47.6287103 383.791528 47.6313555 383.695887 47.6772636 383.600245 47.7231717 383.52891 47.8079258 383.5 47.91 383.236215 48.6667714 382.922183 49.4050809 382.56 50.12 382.318769 50.5927371 381.956446 50.9930179 381.51 51.28 380.969891 51.5834529 380.368301 51.7611953 379.75 51.8 379 51.88 377.95 51.91 376.61 51.91L375.7 51.91C374.25 51.91 373.09 51.91 372.26 51.91 371.606284 51.8866464 370.954846 51.8198322 370.31 51.71 369.982603 51.6668117 369.664823 51.568773 369.37 51.42 369.190194 51.3161349 369.025349 51.1882966 368.88 51.04 368.700333 50.8603199 368.548644 50.6546973 368.43 50.43 368.288541 50.1349384 368.187626 49.8221045 368.13 49.5 368.045575 48.9807223 367.998787 48.4560225 367.99 47.93 367.99 47.29 367.99 46.43 367.99 45.32L367.99 35.42 370.45 35.42C372.633711 35.3764185 374.818005 35.4699357 376.99 35.7 377.813066 35.7258954 378.615556 35.9635427 379.32 36.39 379.602382 36.6699772 379.814792 37.0125745 379.94 37.39 380.049549 37.7334709 380.113431 38.0898628 380.13 38.45 380.13 38.52 380.13 38.75 380.55 38.75 380.655565 38.764882 380.762296 38.7322103 380.841441 38.6607864 380.920587 38.5893625 380.964005 38.4865332 380.96 38.38 380.96 37.93 380.89 37.38 380.88 36.58 380.87 35.78 380.88 35.2 380.88 34.66L380.88 32.66C380.88 32.3 380.88 31.99 380.88 31.72 380.88 31.45 380.88 31.22 380.88 31.15 380.913155 31.0478225 380.894501 30.9359015 380.83 30.85 380.738996 30.7437037 380.59216 30.7040185 380.46 30.75 380.19 30.81 380.05 30.93 380.05 31.09 380.013692 31.4762184 379.940013 31.8580054 379.83 32.23 379.689181 32.6550423 379.457089 33.0441363 379.15 33.37 378.934338 33.4963415 378.696905 33.581139 378.45 33.62 377.934722 33.719399 377.413688 33.7861982 376.89 33.82 376.21 33.88 375.32 33.91 374.27 33.93L370.42 34.02 367.97 34.02 367.97 18.28C368.156464 18.2676886 368.343536 18.2676886 368.53 18.28L374.53 18.28C375.8 18.28 376.84 18.28 377.62 18.34 378.215408 18.3481395 378.805878 18.449363 379.37 18.64 379.740963 18.7752303 380.043083 19.0521737 380.21 19.41 380.440918 19.924564 380.608802 20.4651501 380.71 21.02 380.71 21.11 380.71 21.32 381.13 21.32 381.55 21.32 381.54 21.14 381.54 20.96L381.54 20.19C381.54 19.78 381.54 19.36 381.54 18.92 381.54 18.48 381.54 18.08 381.54 17.72L381.54 17.12C381.54 16.88 381.25 16.76 381.13 16.72 380.52735 16.5799684 379.906352 16.5360935 379.29 16.59L378.05 16.59C377.55 16.59 377.05 16.59 376.45 16.59L374.77 16.59 373.32 16.59 366.2 16.59C365.32 16.59 364.3 16.59 363.2 16.54L360.2 16.42C360.090068 16.4135399 359.983225 16.4577506 359.91 16.54 359.824044 16.6543709 359.787978 16.7986347 359.81 16.94 359.81 17.26 359.95 17.42 360.13 17.42 360.88955 17.4395239 361.64586 17.5265331 362.39 17.68 362.891742 17.7815589 363.329446 18.0854196 363.6 18.52 363.949018 19.184779 364.143838 19.9196264 364.17 20.67 364.27 21.67 364.32 23.09 364.32 24.87L364.32 45.27C364.32 47.06 364.27 48.47 364.17 49.47 364.145334 50.2237738 363.950471 50.9622024 363.6 51.63 363.328318 52.061627 362.890499 52.361949 362.39 52.46 361.649352 52.6141985 360.896296 52.7012184 360.14 52.72 359.946667 52.72 359.836667 52.88 359.81 53.2 359.787978 53.3413653 359.824044 53.4856291 359.91 53.6 359.983225 53.6822494 360.090068 53.7264601 360.2 53.72L362.38 53.72 365.71 53.66 369.07 53.61 371.33 53.61 372.25 53.61C373.2 53.61 374.16 53.61 375.11 53.61L377.78 53.66 379.96 53.72 381.37 53.72C381.851587 53.726546 382.332975 53.6964593 382.81 53.63 383.216655 53.5877517 383.546642 53.2822084 383.62 52.88L384.42 48.08C384.449527 48.0131137 384.449527 47.9368863 384.42 47.87 384.333075 47.7248099 384.167507 47.645968 384 47.67L384 47.67zM429.63 16.51L429.63 16.51 427.17 16.63C426.38 16.63 425.53 16.68 424.65 16.68 423.77 16.68 422.99 16.68 422.31 16.63L420 16.51C419.9 16.51 419.65 16.51 419.65 17.01 419.65 17.51 419.75 17.51 419.94 17.51 420.69955 17.5295239 421.45586 17.6165331 422.2 17.77 422.699016 17.8718554 423.133493 18.1759894 423.4 18.61 423.754449 19.2731826 423.952822 20.0085305 423.98 20.76 424.07 21.76 424.12 23.18 424.12 24.96L424.23 46.11C421.7 42.79 418.83 39.01 415.71 34.86 412.45 30.54 408.97 25.76 405.35 20.66 404.97 20.13 404.54 19.49 404.07 18.75 403.6 18.01 403.16 17.33 402.78 16.75L402.72 16.67 402.62 16.67 401.35 16.67 399.92 16.67C399.31 16.67 398.54 16.67 397.61 16.56 396.68 16.45 395.87 16.41 395.26 16.33L395.16 16.33C395.05 16.33 394.8 16.38 394.8 16.84 394.8 16.99 394.8 17.4 395.1 17.4 395.663582 17.3874223 396.225121 17.4719914 396.76 17.65 397.159906 17.7727719 397.528392 17.9808982 397.84 18.26 398.064073 18.4852248 398.268172 18.7294749 398.45 18.99 398.663903 19.3210789 398.819488 19.6863655 398.91 20.07 399.067317 20.6946695 399.180926 21.3295397 399.25 21.97 399.35258 22.9666064 399.39932 23.9681716 399.39 24.97L399.39 45.27C399.39 47.05 399.34 48.46 399.25 49.47 399.220329 50.2230326 399.025751 50.9603775 398.68 51.63 398.406588 52.0599603 397.969567 52.3597351 397.47 52.46 396.729148 52.6129315 395.976206 52.6999382 395.22 52.72 395.02 52.72 394.92 52.89 394.92 53.22 394.92 53.55 395.23 53.72 395.34 53.72L395.34 53.72 397.81 53.61C398.6 53.61 399.45 53.55 400.32 53.55 401.19 53.55 401.99 53.55 402.67 53.61L404.97 53.72C405.08 53.72 405.33 53.72 405.33 53.22 405.33 52.72 405.23 52.72 405.04 52.72 404.28045 52.7004761 403.52414 52.6134669 402.78 52.46 402.279501 52.361949 401.841682 52.061627 401.57 51.63 401.219529 50.9622024 401.024666 50.2237738 401 49.47 400.9 48.47 400.85 47.06 400.85 45.27L400.63 21.27C402.46 23.74 404.43 26.37 406.49 29.09L413.06 37.78 419.45 46.24C421.52 48.98 423.37 51.44 425.04 53.64 425.149103 53.7470532 425.297225 53.8048567 425.45 53.8 425.549042 53.8062423 425.645869 53.768901 425.715073 53.697774 425.784278 53.6266469 425.818953 53.5288342 425.81 53.43 425.81 52.94 425.75 52.31 425.73 51.55L425.6 47C425.6 46.29 425.6 45.73 425.6 45.31L425.6 25C425.6 23.22 425.65 21.81 425.75 20.8 425.776162 20.0496264 425.970982 19.314779 426.32 18.65 426.590554 18.2154196 427.028258 17.9115589 427.53 17.81 428.270852 17.6570685 429.023794 17.5700618 429.78 17.55 429.92 17.55 430.08 17.47 430.08 17.05 430.08 16.63 429.73 16.51 429.63 16.51zM470.25 21.36C470.25 20.84 470.17 20.29 470.13 19.7L470 17.92C469.96 17.32 469.92 16.83 469.88 16.45L469.88 16.27 469.7 16.27C468.7 16.35 467 16.41 464.46 16.47 461.92 16.53 458.96 16.56 455.46 16.56L451.9 16.56 447.66 16.5 443.73 16.42C442.54 16.42 441.67 16.32 441.14 16.25L440.94 16.25 440.58 22.43C440.58 22.53 440.63 22.71 440.97 22.76 441.31 22.81 441.41 22.63 441.41 22.51 441.510634 21.8555622 441.738236 21.2271096 442.08 20.66 442.35774 20.1157902 442.746021 19.6355483 443.22 19.25 443.534193 19.0730627 443.870455 18.9385578 444.22 18.85 444.850112 18.6799701 445.491827 18.5563062 446.14 18.48 446.97 18.37 447.99 18.27 449.25 18.2 450.51 18.13 451.91 18.08 453.62 18.08L453.62 45.27C453.62 47.06 453.57 48.47 453.47 49.47 453.447222 50.2273701 453.233993 50.9667943 452.85 51.62 452.518154 52.0703537 452.022459 52.3720813 451.47 52.46 450.611454 52.6144393 449.742127 52.701372 448.87 52.72 448.58 52.72 448.55 53.08 448.54 53.2 448.512885 53.3415514 448.549462 53.4878619 448.64 53.6 448.713225 53.6822494 448.820068 53.7264601 448.93 53.72L450.42 53.72 453.95 53.61 455.47 53.61 457.01 53.61 458.79 53.66 460.57 53.72 462.07 53.72C462.17 53.72 462.42 53.72 462.42 53.22 462.42 52.72 462.32 52.72 462.13 52.72 461.234591 52.7029359 460.341879 52.6160052 459.46 52.46 458.916896 52.3759954 458.432288 52.0722114 458.12 51.62 457.748403 50.9626784 457.542471 50.2247521 457.52 49.47 457.42 48.47 457.38 47.05 457.38 45.27L457.38 18C459.08 18 460.55 18 461.77 18.12 462.99 18.24 464.08 18.3 464.91 18.43 465.569159 18.5234571 466.220813 18.6638132 466.86 18.85 467.210427 18.9542577 467.546385 19.1020793 467.86 19.29 468.30296 19.6267442 468.648144 20.0754839 468.86 20.59 469.130938 21.2187106 469.341875 21.8716112 469.49 22.54 469.49 22.63 469.65 22.77 469.97 22.73 470.29 22.69 470.36 22.51 470.36 22.37 470.301196 22.0361139 470.26445 21.6987168 470.25 21.36L470.25 21.36z"/>
</svg>
