<svg xmlns="http://www.w3.org/2000/svg" width="1418" height="242" viewBox="0 0 1418 242">
  <g fill="none" fill-rule="evenodd">
    <path fill="#FFF" d="M200.3,221.1 C267.7,103.7 182.6,23.7 62.7,81.5 C138.9,-30 339.8,82.8 200.5,221.1 C200.5,221.1 200.3,221.1 200.3,221.1"/>
    <path fill="#FFF" d="M52.9,220.2 C-88.3,92.4 85.8,-75.6 213.7,37.1 C213.6,37.1 213.8,37.1 213.6,37.1 C78.6,-23.5 -28.3,102.4 52.9,220.2 C53,220.3 52.9,220.1 52.9,220.2"/>
    <path fill="#FFF" d="M43,159 C94.8,228.2 156,234 213.500042,162 C213.6,272.7 33,264.5 43,159"/>
    <path fill="#FFF" fill-rule="nonzero" d="M1414.8,155.3 C1412.8,153.3 1410.3,152.3 1407.4,152.3 C1404.5,152.3 1402,153.3 1400.1,155.3 C1398.1,157.3 1397.1,159.8 1397.1,162.7 C1397.1,165.6 1398.1,168.1 1400.1,170 C1402.1,172 1404.6,173 1407.4,173 C1410.3,173 1412.8,172 1414.8,170 C1416.8,168 1417.8,165.5 1417.8,162.7 C1417.8,159.8 1416.8,157.3 1414.8,155.3 M1407.4,170.8 C1405.1,170.8 1403.2,170 1401.6,168.4 C1400,166.8 1399.3,164.9 1399.3,162.6 C1399.3,160.3 1400.1,158.4 1401.6,156.8 C1403.2,155.2 1405.1,154.4 1407.4,154.4 C1409.7,154.4 1411.6,155.2 1413.2,156.8 C1414.8,158.4 1415.6,160.3 1415.6,162.6 C1415.6,164.9 1414.8,166.8 1413.2,168.4 C1411.6,170 1409.7,170.8 1407.4,170.8"/>
    <path fill="#FFF" fill-rule="nonzero" d="M1410.3 162.9C1411 162.2 1411.3 161.4 1411.3 160.4 1411.3 159.4 1411 158.6 1410.3 157.9 1409.6 157.2 1408.8 156.9 1407.8 156.9L1403.5 156.9 1403.5 168.3 1405.9 168.3 1405.9 163.9 1406.9 163.9 1408.6 168.3 1411.5 168.3 1409.6 163.4C1409.9 163.3 1410.1 163.1 1410.3 162.9L1410.3 162.9zM1405.9 159.4L1407.8 159.4C1408.1 159.4 1408.3 159.5 1408.5 159.7 1408.7 159.9 1408.8 160.1 1408.8 160.4 1408.8 160.7 1408.7 160.9 1408.5 161.1 1408.3 161.3 1408.1 161.4 1407.8 161.4L1405.9 161.4 1405.9 159.4zM390.9 77C352.9 77 327.4 96.2 327.4 124.8 327.4 153.2 352.9 172.3 390.9 172.3 408.7 172.3 426.6 168.2 438.8 161.3L439.8 160.8 439.8 151.8 437 153.5C425.5 160.4 408.5 164.5 391.5 164.5 358.5 164.5 337.2 148.9 337.2 124.8 337.2 100.5 358.4 84.8 391.1 84.8 407.8 84.8 424.5 88.9 437 96L439.8 97.6 439.8 88.7 438.8 88.2C429.2 83 413.1 77 390.9 77"/>
    <path fill="#FFF" fill-rule="nonzero" stroke="#FFF" d="M390.9,77 C352.9,77 327.4,96.2 327.4,124.8 C327.4,153.2 352.9,172.3 390.9,172.3 C408.7,172.3 426.6,168.2 438.8,161.3 L439.8,160.8 L439.8,151.8 L437,153.5 C425.5,160.4 408.5,164.5 391.5,164.5 C358.5,164.5 337.2,148.9 337.2,124.8 C337.2,100.5 358.4,84.8 391.1,84.8 C407.8,84.8 424.5,88.9 437,96 L439.8,97.6 L439.8,88.7 L438.8,88.2 C429.2,83 413.1,77 390.9,77 Z"/>
    <path fill="#FFF" fill-rule="nonzero" d="M571.4,106.2 C571.4,89.3 558.4,78.4 538.4,78.4 L480.4,78.4 L480.4,170.5 L489.8,170.5 L489.8,134.4 L537.3,134.4 L563.5,170.5 L574.7,170.5 L548,133.8 C563.3,131.1 571.4,121.6 571.4,106.2 L571.4,106.2 Z M489.8,86.7 L538.4,86.7 C557.9,86.7 562.1,97.3 562.1,106.1 C562.1,114.7 559.6,126 538.4,126 L489.8,126 L489.8,86.7 L489.8,86.7 Z"/>
    <path fill="#FFF" fill-rule="nonzero" stroke="#FFF" d="M571.4,106.2 C571.4,89.3 558.4,78.4 538.4,78.4 L480.4,78.4 L480.4,170.5 L489.8,170.5 L489.8,134.4 L537.3,134.4 L563.5,170.5 L574.7,170.5 L548,133.8 C563.3,131.1 571.4,121.6 571.4,106.2 Z M489.8,86.7 L538.4,86.7 C557.9,86.7 562.1,97.3 562.1,106.1 C562.1,114.7 559.6,126 538.4,126 L489.8,126 L489.8,86.7 L489.8,86.7 Z"/>
    <polygon fill="#FFF" fill-rule="nonzero" points="614.2 170.5 705.9 170.5 705.9 162.4 623.5 162.4 623.5 126.7 692.7 126.7 692.7 118.5 623.5 118.5 623.5 86.6 705.9 86.6 705.9 78.4 614.2 78.4"/>
    <polygon fill="#FFF" fill-rule="nonzero" stroke="#FFF" points="614.2 170.5 705.9 170.5 705.9 162.4 623.5 162.4 623.5 126.7 692.7 126.7 692.7 118.5 623.5 118.5 623.5 86.6 705.9 86.6 705.9 78.4 614.2 78.4"/>
    <path fill="#FFF" fill-rule="nonzero" d="M784,116.8 C765.8,114.8 748.6,112.8 748.6,100.3 C748.6,86.4 768.6,84.7 783.7,84.7 C801.4,84.7 815.6,86.8 823.6,90.5 L825.8,91.5 L827.2,83.5 L825.8,82.9 C818.8,80.1 805.9,76.8 784.3,76.8 C773.3,76.8 740,76.8 740,100.7 C740,120.3 762.1,122.8 783.5,125.2 C803.4,127.5 822.2,129.6 822.2,144.7 C822.2,161.7 798,164.3 783.6,164.3 C771.2,164.3 753,162.5 740.1,158.6 L737.8,157.9 L737.5,166 L738.9,166.4 C752.1,170.3 770.9,172.1 783.6,172.1 C813.9,172.1 830.5,162.2 830.5,144.2 C830.4,122 805.7,119.2 784,116.8"/>
    <path fill="#FFF" fill-rule="nonzero" stroke="#FFF" d="M784,116.8 C765.8,114.8 748.6,112.8 748.6,100.3 C748.6,86.4 768.6,84.7 783.7,84.7 C801.4,84.7 815.6,86.8 823.6,90.5 L825.8,91.5 L827.2,83.5 L825.8,82.9 C818.8,80.1 805.9,76.8 784.3,76.8 C773.3,76.8 740,76.8 740,100.7 C740,120.3 762.1,122.8 783.5,125.2 C803.4,127.5 822.2,129.6 822.2,144.7 C822.2,161.7 798,164.3 783.6,164.3 C771.2,164.3 753,162.5 740.1,158.6 L737.8,157.9 L737.5,166 L738.9,166.4 C752.1,170.3 770.9,172.1 783.6,172.1 C813.9,172.1 830.5,162.2 830.5,144.2 C830.4,122 805.7,119.2 784,116.8 Z"/>
    <path fill="#FFF" fill-rule="nonzero" d="M925.3,77 C887.3,77 861.8,96.2 861.8,124.8 C861.8,153.2 887.3,172.3 925.3,172.3 C943.1,172.3 961,168.2 973.2,161.3 L974.2,160.8 L974.2,151.8 L971.4,153.5 C959.9,160.4 942.9,164.5 925.9,164.5 C892.9,164.5 871.6,148.9 871.6,124.8 C871.6,100.5 892.8,84.8 925.5,84.8 C942.2,84.8 958.9,88.9 971.4,96 L974.2,97.6 L974.2,88.7 L973.2,88.2 C963.6,83 947.5,77 925.3,77"/>
    <path fill="#FFF" fill-rule="nonzero" stroke="#FFF" d="M925.3,77 C887.3,77 861.8,96.2 861.8,124.8 C861.8,153.2 887.3,172.3 925.3,172.3 C943.1,172.3 961,168.2 973.2,161.3 L974.2,160.8 L974.2,151.8 L971.4,153.5 C959.9,160.4 942.9,164.5 925.9,164.5 C892.9,164.5 871.6,148.9 871.6,124.8 C871.6,100.5 892.8,84.8 925.5,84.8 C942.2,84.8 958.9,88.9 971.4,96 L974.2,97.6 L974.2,88.7 L973.2,88.2 C963.6,83 947.5,77 925.3,77 Z"/>
    <polygon fill="#FFF" fill-rule="nonzero" points="1014.8 170.5 1106.6 170.5 1106.6 162.4 1024.2 162.4 1024.2 126.7 1093.4 126.7 1093.4 118.5 1024.2 118.5 1024.2 86.6 1106.6 86.6 1106.6 78.4 1014.8 78.4"/>
    <polygon fill="#FFF" fill-rule="nonzero" stroke="#FFF" points="1014.8 170.5 1106.6 170.5 1106.6 162.4 1024.2 162.4 1024.2 126.7 1093.4 126.7 1093.4 118.5 1024.2 118.5 1024.2 86.6 1106.6 86.6 1106.6 78.4 1014.8 78.4"/>
    <polygon fill="#FFF" fill-rule="nonzero" points="1247.4 155.7 1147.7 74.9 1147.7 170.5 1156.9 170.5 1156.9 93.7 1256.6 174.3 1256.6 78.4 1247.4 78.4"/>
    <polygon fill="#FFF" fill-rule="nonzero" stroke="#FFF" points="1247.4 155.7 1147.7 74.9 1147.7 170.5 1156.9 170.5 1156.9 93.7 1256.6 174.3 1256.6 78.4 1247.4 78.4"/>
    <polygon fill="#FFF" fill-rule="nonzero" points="1291.6 78.4 1291.6 86.7 1338.9 86.7 1338.9 170.5 1348.3 170.5 1348.3 86.7 1395.6 86.7 1395.6 78.4"/>
    <polygon fill="#FFF" fill-rule="nonzero" stroke="#FFF" points="1291.6 78.4 1291.6 86.7 1338.9 86.7 1338.9 170.5 1348.3 170.5 1348.3 86.7 1395.6 86.7 1395.6 78.4"/>
  </g>
</svg>
